Coordinates
version=1
nRows=6
nColumns=63
inDegrees=yes

Units are S.I. units (second, meters, Newtons, ...)
If the header above contains a line with 'inDegrees', this indicates whether rotational values are in degrees (yes) or radians (no).

endheader
time	pelvis_tilt	pelvis_list	pelvis_rotation	pelvis_tx	pelvis_ty	pelvis_tz	hip_flexion_r	hip_adduction_r	hip_rotation_r	knee_angle_r	knee_angle_r_beta	ankle_angle_r	subtalar_angle_r	mtp_angle_r	hip_flexion_l	hip_adduction_l	hip_rotation_l	knee_angle_l	knee_angle_l_beta	ankle_angle_l	subtalar_angle_l	mtp_angle_l	L5_S1_Flex_Ext	L5_S1_Lat_Bending	L5_S1_axial_rotation	L4_L5_Flex_Ext	L4_L5_Lat_Bending	L4_L5_axial_rotation	L3_L4_Flex_Ext	L3_L4_Lat_Bending	L3_L4_axial_rotation	L2_L3_Flex_Ext	L2_L3_Lat_Bending	L2_L3_axial_rotation	L1_L2_Flex_Ext	L1_L2_Lat_Bending	L1_L2_axial_rotation	L1_T12_Flex_Ext	L1_T12_Lat_Bending	L1_T12_axial_rotation	Abs_r3	Abs_r2	Abs_r1	Abs_t1	Abs_t2	neck_flexion	neck_bending	neck_rotation	arm_flex_r	arm_add_r	arm_rot_r	elbow_flex_r	pro_sup_r	wrist_flex_r	wrist_dev_r	arm_flex_l	arm_add_l	arm_rot_l	elbow_flex_l	pro_sup_l	wrist_flex_l	wrist_dev_l
0.966102	-36.188776	-54.635588	67.384454	0.233921	0.254420	1.017043	85.749994	-14.668662	-8.654994	44.719436	0.780501	35.069956	8.639208	0.000000	80.186352	6.938675	-17.045967	35.558978	0.620621	29.152090	13.891257	0.000000	-0.660998	-0.304651	2.555142	-1.227539	-0.405186	2.714838	-1.085954	-0.740728	2.714838	-0.755455	-0.740728	2.235749	-0.613803	-0.621244	2.076053	-0.377694	-0.471904	1.916356	-4.721443	-3.446271	14.210933	0.000000	0.000000	5.503662	2.666306	-25.541404	30.828189	-44.962285	-0.606576	92.440067	89.839069	-10.210250	-3.122000	-4.887062	-20.755156	19.692453	60.461534	88.218917	-20.834836	-17.326461
0.983051	-43.652602	-54.619761	60.967157	0.236963	0.246008	1.027565	91.150523	-13.355639	-4.939245	45.445003	0.793165	33.849012	8.513823	0.000000	83.960054	6.645939	-20.910808	35.162299	0.613698	29.032488	13.755758	0.000000	-0.639873	-0.830249	2.476708	-1.188307	-1.104231	2.631502	-1.051247	-2.018668	2.631502	-0.731310	-2.018668	2.167120	-0.594186	-1.693044	2.012325	-0.365623	-1.286056	1.857531	-4.570546	-9.391943	13.774708	0.000000	0.000000	3.214214	5.397954	-27.783102	33.789919	-41.529039	-3.280436	89.829660	90.404646	-13.799028	-2.980799	-0.963175	-21.294781	23.273726	56.965143	89.979245	-19.575472	-15.659896
1.000000	-51.889119	-53.821887	53.837316	0.240773	0.238347	1.037063	96.508382	-11.626443	-0.764601	45.900370	0.801113	32.471846	8.297686	0.000000	87.456103	6.260060	-25.505610	34.333342	0.599230	28.886804	13.714029	0.000000	-0.569723	-1.459728	2.328883	-1.058033	-1.941439	2.474438	-0.935999	-3.549183	2.474438	-0.651137	-3.549183	2.037773	-0.529045	-2.976678	1.892218	-0.325540	-2.261119	1.746662	-4.069477	-16.512738	12.952549	0.000000	0.000000	1.631046	8.250554	-30.173917	36.614004	-37.492161	-5.838013	86.772436	90.442948	-16.377307	-2.651115	3.906102	-21.600637	27.920564	53.453852	89.566535	-18.354795	-13.738218
1.016949	-60.707911	-52.279413	46.219788	0.245170	0.231346	1.045476	101.778623	-9.599335	3.772009	46.199368	0.806331	31.044718	8.029377	0.000000	90.665460	5.852641	-30.723302	33.144321	0.578478	28.738400	13.705284	0.000000	-0.452960	-2.180110	2.065278	-0.841191	-2.899547	2.194358	-0.744167	-5.300721	2.194358	-0.517687	-5.300721	1.807119	-0.420618	-4.445681	1.678039	-0.258821	-3.376991	1.548959	-3.235445	-24.661846	11.486458	0.000000	0.000000	0.878066	11.272601	-32.640117	39.441793	-32.836315	-8.027606	83.274550	89.972553	-17.854517	-2.283911	9.459305	-21.803310	32.513708	50.078433	87.157765	-17.331132	-11.550525
1.033898	-69.902738	-50.090047	38.360386	0.249942	0.224882	1.052790	106.939083	-7.371200	8.624569	46.440389	0.810538	29.642010	7.620272	0.000000	93.625112	5.475870	-36.399191	31.719668	0.553613	28.602586	13.680547	0.000000	-0.291362	-2.971526	1.655347	-0.541088	-3.952130	1.758807	-0.478678	-7.224968	1.758807	-0.332997	-7.224968	1.448429	-0.270558	-6.059536	1.344970	-0.166484	-4.602894	1.241510	-2.081168	-33.614496	9.206545	0.000000	0.000000	0.989572	14.437229	-35.134469	42.277250	-27.567553	-9.743628	79.400588	89.563799	-18.303123	-2.240715	15.551719	-22.007861	36.028175	46.874240	83.019351	-16.676154	-9.161736
1.050847	-79.293933	-47.376752	30.437943	0.254919	0.218812	1.058995	111.978644	-5.038826	13.701130	46.711632	0.815272	28.353495	7.106078	0.000000	96.363636	5.153831	-42.403493	30.169856	0.526563	28.493343	13.636109	0.000000	-0.088185	-3.811223	1.087633	-0.163768	-5.068927	1.155610	-0.144879	-9.266609	1.155610	-0.100787	-9.266609	0.951679	-0.081889	-7.771847	0.883702	-0.050389	-5.903585	0.815725	-0.629897	-43.113322	6.049088	0.000000	0.000000	1.955838	17.706282	-37.553613	45.093468	-21.724973	-10.907336	75.247891	89.509170	-18.016254	-2.529775	21.992538	-22.310564	37.706291	43.928895	77.450812	-16.204708	-6.597799
